# xmcd
#
# Track frame offsets:
#	150
#	16083
#	33420
#	58542
#	76172
#	96330
#	113699
#	131785
#	170998
#
# Disc length: 2730 seconds
# Revision: 0
# Processed by: cddbd v1.5.2PL0 Copyright (c) Steve Scherf et al.
# Submitted via: dBpowerAMP V12.0
#
DISCID=6f0aa809
DTITLE=Freddie King - Freddie King (1934-1976)
DYEAR=1977
DGENRE=Blues
TTITLE0=Pack It Up
TTITLE1=Shake Your Booty Baby
TTITLE2=Ain't Nobody's Business
TTITLE3=Woman Across the River
TTITLE4=Sweet Home Chicago
TTITLE5=Sugar Sweet
TTITLE6=TV Mama
TTITLE7=Gambling Woman Blues
TTITLE8=Farther on up the Road
EXTD=
EXTT0=
EXTT1=
EXTT2=
EXTT3=
EXTT4=
EXTT5=
EXTT6=
EXTT7=
EXTT8=
PLAYORDER=
